<svg id="Layer_1" data-name="Layer 1" xmlns="http://www.w3.org/2000/svg" width="87" height="87" viewBox="0 0 87 87"><title>gears</title><path d="M43.5,87A43.5,43.5,0,1,1,87,43.5,43.5,43.5,0,0,1,43.5,87Zm0-84A40.5,40.5,0,1,0,84,43.5,40.6,40.6,0,0,0,43.5,3Z" fill="#00538b"/><circle cx="35.5" cy="44.8" r="6.1" fill="#00538b"/><path d="M55.6,36.8a3,3,0,0,1-4-1,2.9,2.9,0,0,1,1.1-4,2.9,2.9,0,0,1,3.9,1.1A2.9,2.9,0,0,1,55.6,36.8Z" fill="#00538b"/><path d="M43.5,5.7A37.8,37.8,0,1,0,81.3,43.5,37.8,37.8,0,0,0,43.5,5.7Zm-.7,50.5-2.5-2.5a9,9,0,0,1-2.1.8V58H32.6V54.5a9.5,9.5,0,0,1-2.1-.9l-2.4,2.5-4-4,2.5-2.5a7.8,7.8,0,0,1-.9-2.1H22.2V41.9h3.6a7.2,7.2,0,0,1,.9-2l-2.5-2.5,4-4,2.5,2.5a7,7,0,0,1,2-.8V31.5h5.7v3.6a7.2,7.2,0,0,1,2,.9l2.5-2.5,4,4L44.4,40a11.9,11.9,0,0,1,.8,2h3.5v5.7H45.2a7.2,7.2,0,0,1-.9,2l2.5,2.5Zm16.6,5.1-3.3,1.9-1.5-2.7H53.3l-1.5,2.7-3.3-1.9,1.6-2.7-.4-.5-.3-.6H46.3V53.8h3.1a4.1,4.1,0,0,1,.7-1.1L48.5,50l3.2-1.9,1.6,2.7h1.3l1.5-2.7L59.4,50l-1.6,2.7.4.5a1.4,1.4,0,0,1,.2.6h3.2v3.7H58.4a2.4,2.4,0,0,1-.6,1.1Zm-.8-25.1L58,37.3,59.5,40l-3.2,1.8-1.5-2.6H53.5l-1.6,2.7L48.7,40l1.5-2.7-.3-.5-.3-.6H46.5V32.5h3.1l.6-1.2-1.5-2.7,3.2-1.8,1.6,2.7a2.4,2.4,0,0,1,1.2,0l1.6-2.7,3.2,1.8L58,31.3l.3.6c.2.1.2.3.3.5h3.1v3.8Z" fill="#00538b"/><path d="M55.4,58.1a2.9,2.9,0,0,1-4-1,2.9,2.9,0,0,1,1.1-4,2.8,2.8,0,0,1,3.9,1.1A2.8,2.8,0,0,1,55.4,58.1Z" fill="#00538b"/></svg>