<svg id="Layer_1" data-name="Layer 1" xmlns="http://www.w3.org/2000/svg" width="87" height="87" viewBox="0 0 87 87"><title>light-bulb</title><path d="M43.5,87A43.5,43.5,0,1,1,87,43.5,43.5,43.5,0,0,1,43.5,87Zm0-84A40.5,40.5,0,1,0,84,43.5,40.6,40.6,0,0,0,43.5,3Z" fill="#00538b"/><path d="M36.2,42.5a.9.9,0,0,1-1-1c0-4.1,1.7-6.4,5.5-7.3a.9.9,0,0,1,1.2.7,1,1,0,0,1-.8,1.2c-2.8.7-3.9,2.2-3.9,5.4A1,1,0,0,1,36.2,42.5Z" fill="#00538b"/><path d="M43.5,5.7A37.8,37.8,0,1,0,81.3,43.5,37.8,37.8,0,0,0,43.5,5.7Zm4.1,53.5H39.3c0-.5.1-1,.1-1.5h8.2Zm0,1a2.5,2.5,0,0,1-1,2.1,5.3,5.3,0,0,1-3.1,1.5,5.3,5.3,0,0,1-3.1-1.5,2.6,2.6,0,0,1-1.1-2.1ZM53.3,42c0,4.9-5.6,9.6-5.6,10.4a40.4,40.4,0,0,0-.1,4.3H39.4a40.4,40.4,0,0,0-.1-4.3c-.1-.8-5.6-5.5-5.6-10.4,0-7.3,5-9.6,9.8-9.6S53.3,34.4,53.3,42ZM43.5,30a.9.9,0,0,1-1-1V24.2a1,1,0,0,1,1-1,1.1,1.1,0,0,1,1,1V29A1,1,0,0,1,43.5,30Zm9.1,3.7a1.1,1.1,0,0,1-.7-.3,1,1,0,0,1,0-1.4l3.4-3.4a1.1,1.1,0,0,1,1.5,0,1.2,1.2,0,0,1,0,1.4l-3.5,3.4A.9.9,0,0,1,52.6,33.7Zm8.9,9.1H56.2a1,1,0,0,1-1-1,.9.9,0,0,1,1-1h5.3a1,1,0,0,1,1,1A1.1,1.1,0,0,1,61.5,42.8ZM56.1,55.5a.9.9,0,0,1-.7-.3l-3.5-3.5a1,1,0,1,1,1.4-1.4l3.5,3.5a1,1,0,0,1,0,1.4A1.1,1.1,0,0,1,56.1,55.5ZM34.4,33.7a.9.9,0,0,1-.7-.3L30.2,30a1,1,0,1,1,1.4-1.4L35.1,32a1,1,0,0,1,0,1.4A1.1,1.1,0,0,1,34.4,33.7Zm-3.6,9.1H25.5a1,1,0,0,1-1-1,.9.9,0,0,1,1-1h5.3a.9.9,0,0,1,1,1A1,1,0,0,1,30.8,42.8Zm.1,12.7a.9.9,0,0,1-.7-.3,1,1,0,0,1,0-1.4l3.5-3.5a1,1,0,1,1,1.4,1.4l-3.5,3.5A.9.9,0,0,1,30.9,55.5Z" fill="#00538b"/></svg>