<svg id="Layer_1" data-name="Layer 1" xmlns="http://www.w3.org/2000/svg" width="283.5" height="87" viewBox="0 0 283.5 87"><title>logo</title><path d="M111.3.2c0-.2-.2-.2-.3-.2L.2,40.9a.2.2,0,0,0-.2.2.4.4,0,0,0,.1.3L58.4,86.9h.4a.3.3,0,0,0,0-.4l-36-41.3L111.2.6C111.3.5,111.4.3,111.3.2Z" fill="#00538b"/><path d="M109.7,4.3h-.4L80.7,20.1a.2.2,0,0,0-.1.3.2.2,0,0,0,.2.2l5,.4-25,61.7c-.1.1,0,.3.1.4h.2l.2-.2L109.7,4.6A.2.2,0,0,0,109.7,4.3Z" fill="#76777a"/><path d="M119.7,72.8v.4h-1.3a1.9,1.9,0,0,1,.5,1.4,2,2,0,0,1-.6,1.5,2.1,2.1,0,0,1-1.6.6h-.6l-.5.4a1.4,1.4,0,0,0-.2.6.5.5,0,0,0,.2.4h1.9a2.5,2.5,0,0,1,1.6.5,1.4,1.4,0,0,1,.5,1.2,1.8,1.8,0,0,1-.8,1.5,3.7,3.7,0,0,1-2.3.6,3,3,0,0,1-1.8-.5,1.4,1.4,0,0,1-.7-1.3,1.5,1.5,0,0,1,.4-1.1,2.8,2.8,0,0,1,1.1-.5l-.5-.4a.7.7,0,0,1-.1-.5,1.2,1.2,0,0,1,.8-1.1,2.2,2.2,0,0,1-.9-.7,2,2,0,0,1-.3-1.1,1.8,1.8,0,0,1,.6-1.5,2.3,2.3,0,0,1,1.6-.6h3Zm-5.1,7.4c0,.8.7,1.3,1.9,1.3s2.5-.6,2.5-1.6-.1-.7-.4-.8a1.7,1.7,0,0,0-1.2-.3h-1.1C115.2,78.8,114.6,79.3,114.6,80.2Zm.5-5.4a1.4,1.4,0,0,0,.4,1.1,2,2,0,0,0,2.4,0,1.5,1.5,0,0,0,.4-1.2,1.6,1.6,0,0,0-.4-1.2,2.1,2.1,0,0,0-1.2-.4,1.7,1.7,0,0,0-1.2.5A1.6,1.6,0,0,0,115.1,74.8Z" fill="#76777a"/><path d="M123.5,72.7h.8v.5h-.8a1.5,1.5,0,0,0-1.3.7,2.5,2.5,0,0,0-.5,1.7v3.5H121V72.8h.5v1.1h.1a2.4,2.4,0,0,1,.8-.9A2,2,0,0,1,123.5,72.7Z" fill="#76777a"/><path d="M130.8,75.9a3.7,3.7,0,0,1-.7,2.5,2.9,2.9,0,0,1-2.1.8,2.6,2.6,0,0,1-1.5-.4,2,2,0,0,1-.9-1.1,4.8,4.8,0,0,1-.4-1.8,3.6,3.6,0,0,1,.8-2.4,2.8,2.8,0,0,1,2-.8,2.6,2.6,0,0,1,2.1.9A3.2,3.2,0,0,1,130.8,75.9Zm-5,0a3.3,3.3,0,0,0,.6,2.1,1.9,1.9,0,0,0,1.6.7,1.8,1.8,0,0,0,1.6-.7,3.3,3.3,0,0,0,.6-2.1,3.2,3.2,0,0,0-.6-2,2.2,2.2,0,0,0-3.2,0A3.2,3.2,0,0,0,125.8,75.9Z" fill="#76777a"/><path d="M137.6,79.1l-1.4-4.2a8.6,8.6,0,0,1-.3-1.3h-.1v.5l-.3.8L134,79.1h-.5l-1.8-6.3h.6l1,3.7c.2.9.4,1.5.5,2h0a14.7,14.7,0,0,1,.5-1.9l1.3-3.8h.5l1.2,3.8a8.5,8.5,0,0,1,.5,1.8h.1c0-.2.2-.9.4-2l1-3.6h.6l-1.7,6.3Z" fill="#76777a"/><path d="M171.6,71.1c0-.4.1-.6.4-.6h.2a.7.7,0,0,1,.1.5.6.6,0,0,1-.1.4H172C171.7,71.6,171.6,71.4,171.6,71.1Zm.6,8h-.5V72.8h.5Z" fill="#76777a"/><path d="M178.7,79.1V75a2,2,0,0,0-.4-1.4c-.2-.3-.6-.4-1.2-.4a2.2,2.2,0,0,0-1.7.6,3,3,0,0,0-.5,1.8v3.5h-.5V72.8h.4v.9h.1a2.3,2.3,0,0,1,2.2-1c1.4,0,2.1.8,2.1,2.3v4.1Z" fill="#76777a"/><path d="M185.2,77.5a1.6,1.6,0,0,1-.6,1.3,3,3,0,0,1-1.8.4,3.7,3.7,0,0,1-2-.4v-.6a4.6,4.6,0,0,0,2,.5,2.6,2.6,0,0,0,1.4-.3,1,1,0,0,0,.5-.8,1,1,0,0,0-.4-.8,3.2,3.2,0,0,0-1.3-.7l-1.3-.6c-.3-.1-.4-.3-.6-.5a1.9,1.9,0,0,1-.2-.8,1.3,1.3,0,0,1,.6-1.1,2.9,2.9,0,0,1,1.7-.4,4.1,4.1,0,0,1,1.9.4l-.2.5a3.8,3.8,0,0,0-1.7-.4,2.1,2.1,0,0,0-1.2.3.8.8,0,0,0-.5.7.9.9,0,0,0,.4.8,3.1,3.1,0,0,0,1.3.6l1.3.6a1.2,1.2,0,0,1,.5.5A1.1,1.1,0,0,1,185.2,77.5Z" fill="#76777a"/><path d="M189.5,79.2a2.3,2.3,0,0,1-2.1-1.1h0V82h-.5V72.8h.4l.2.9h0a2.2,2.2,0,0,1,2.1-1,2.4,2.4,0,0,1,1.9.8,4.4,4.4,0,0,1,.7,2.5,4.3,4.3,0,0,1-.7,2.4A2.6,2.6,0,0,1,189.5,79.2Zm0-.5A1.6,1.6,0,0,0,191,78a3.2,3.2,0,0,0,.6-2c0-1.9-.7-2.8-2-2.8a2.2,2.2,0,0,0-1.7.6,3.4,3.4,0,0,0-.5,2V76a3.6,3.6,0,0,0,.5,2.1A2.1,2.1,0,0,0,189.5,78.7Z" fill="#76777a"/><path d="M193.8,71.1c0-.4.1-.6.4-.6h.3a4.3,4.3,0,0,1,.1.5c0,.1-.1.3-.1.4h-.3C193.9,71.6,193.8,71.4,193.8,71.1Zm.7,8h-.6V72.8h.6Z" fill="#76777a"/><path d="M199.1,72.7h.8v.5H199a1.5,1.5,0,0,0-1.3.7,2.5,2.5,0,0,0-.5,1.7v3.5h-.6V72.8h.5v1.1h.1a2.4,2.4,0,0,1,.8-.9A1.8,1.8,0,0,1,199.1,72.7Z" fill="#76777a"/><path d="M203.7,79.2a2.9,2.9,0,0,1-2.1-.8,4,4,0,0,1,0-4.8,2.4,2.4,0,0,1,2-.9,1.9,1.9,0,0,1,1.7.8,3.3,3.3,0,0,1,.7,2.1V76h-4.6a2.8,2.8,0,0,0,.6,2,2.1,2.1,0,0,0,1.7.7h1l1-.3v.5a1.9,1.9,0,0,1-1,.3Zm-.1-6a2,2,0,0,0-1.5.6,2.4,2.4,0,0,0-.6,1.7h3.9a2.9,2.9,0,0,0-.5-1.7A1.6,1.6,0,0,0,203.6,73.2Z" fill="#76777a"/><path d="M245.1,77.5a1.6,1.6,0,0,1-.6,1.3,3,3,0,0,1-1.8.4,3.7,3.7,0,0,1-2-.4v-.6a4.6,4.6,0,0,0,2,.5,2.6,2.6,0,0,0,1.4-.3,1,1,0,0,0,.5-.8,1,1,0,0,0-.4-.8,3.2,3.2,0,0,0-1.3-.7,4,4,0,0,1-1.3-.6,1,1,0,0,1-.6-.5,1.9,1.9,0,0,1-.2-.8,1.3,1.3,0,0,1,.6-1.1,2.9,2.9,0,0,1,1.7-.4,4.1,4.1,0,0,1,1.9.4l-.2.5a3.8,3.8,0,0,0-1.7-.4,2.1,2.1,0,0,0-1.2.3.8.8,0,0,0-.5.7.9.9,0,0,0,.4.8,3.1,3.1,0,0,0,1.3.6l1.3.6a1.2,1.2,0,0,1,.5.5A1.1,1.1,0,0,1,245.1,77.5Z" fill="#76777a"/><path d="M247.2,72.8v4.1a2.6,2.6,0,0,0,.4,1.4,1.7,1.7,0,0,0,1.3.4,2,2,0,0,0,1.6-.6,2.3,2.3,0,0,0,.6-1.8V72.8h.5v6.3h-.5v-.9h0a2.3,2.3,0,0,1-2.2,1c-1.4,0-2.1-.7-2.1-2.3V72.8Z" fill="#76777a"/><path d="M256.2,79.2a2.9,2.9,0,0,1-2.1-.8,3.6,3.6,0,0,1-.7-2.4,3.1,3.1,0,0,1,.8-2.4,2.6,2.6,0,0,1,2.1-.9,4.1,4.1,0,0,1,1.6.3l-.2.5-1.4-.3a2.1,2.1,0,0,0-1.7.7A3.3,3.3,0,0,0,254,76a3.2,3.2,0,0,0,.6,2,1.9,1.9,0,0,0,1.6.7,4.1,4.1,0,0,0,1.6-.3v.5A3.5,3.5,0,0,1,256.2,79.2Z" fill="#76777a"/><path d="M261.9,79.2a2.9,2.9,0,0,1-2.1-.8A3.6,3.6,0,0,1,259,76a3.5,3.5,0,0,1,.8-2.4,2.7,2.7,0,0,1,2.2-.9,4,4,0,0,1,1.5.3v.5l-1.5-.3a2.1,2.1,0,0,0-1.7.7,3.3,3.3,0,0,0-.6,2.1,3.2,3.2,0,0,0,.6,2,2.1,2.1,0,0,0,1.7.7,4.5,4.5,0,0,0,1.6-.3v.5A3.8,3.8,0,0,1,261.9,79.2Z" fill="#76777a"/><path d="M267.5,79.2a2.9,2.9,0,0,1-2.1-.8,4,4,0,0,1,0-4.8,2.4,2.4,0,0,1,2-.9,1.9,1.9,0,0,1,1.7.8,3.3,3.3,0,0,1,.7,2.1V76h-4.6a2.8,2.8,0,0,0,.6,2,2.1,2.1,0,0,0,1.7.7h1l1-.3v.5a1.9,1.9,0,0,1-1,.3Zm-.1-6a2,2,0,0,0-1.5.6,2.4,2.4,0,0,0-.6,1.7h3.8a2.9,2.9,0,0,0-.4-1.7A1.6,1.6,0,0,0,267.4,73.2Z" fill="#76777a"/><path d="M274,79.2a2.9,2.9,0,0,1-2.1-.8,4,4,0,0,1,0-4.8,2.4,2.4,0,0,1,2-.9,1.9,1.9,0,0,1,1.7.8,3.3,3.3,0,0,1,.7,2.1V76h-4.6a2.8,2.8,0,0,0,.6,2,2.1,2.1,0,0,0,1.7.7h1l1-.3v.5a1.9,1.9,0,0,1-1,.3Zm-.1-6a2,2,0,0,0-1.5.6,2.4,2.4,0,0,0-.6,1.7h3.8a2.9,2.9,0,0,0-.4-1.7A1.6,1.6,0,0,0,273.9,73.2Z" fill="#76777a"/><path d="M280.3,72.7l1.2.2a3.8,3.8,0,0,1,.9.9h0V70.1h.5v9h-.3l-.2-1h0a2.3,2.3,0,0,1-2.1,1.1,2.3,2.3,0,0,1-2-.8,3.8,3.8,0,0,1-.7-2.4,4.6,4.6,0,0,1,.7-2.5A2.6,2.6,0,0,1,280.3,72.7Zm0,.5a1.9,1.9,0,0,0-1.6.7,4.1,4.1,0,0,0-.5,2.1q0,2.7,2.1,2.7a2.1,2.1,0,0,0,1.6-.6,3.6,3.6,0,0,0,.5-2.1h0a4.1,4.1,0,0,0-.5-2.1A2.1,2.1,0,0,0,280.3,73.2Z" fill="#76777a"/><path d="M136.7,58l-1.8-4.6h-.2a13.9,13.9,0,0,1-4.9,4.1,14.4,14.4,0,0,1-6.4,1.1,10.6,10.6,0,0,1-7.7-2.7c-1.9-1.9-2.8-4.6-2.8-8s1.3-6.3,3.8-8,6.3-2.7,11.4-2.8l5.9-.2V35.4c0-3.5-1.8-5.2-5.3-5.2a23.6,23.6,0,0,0-9.6,2.5l-3-6.3A27.9,27.9,0,0,1,129,23.3q6.9,0,10.5,3c2.4,2,3.7,5,3.7,9.1V58ZM134,42.3h-3.6a11.4,11.4,0,0,0-6,1.5,4.5,4.5,0,0,0-2,4c0,2.7,1.5,4,4.5,4A6.9,6.9,0,0,0,132,50a6.5,6.5,0,0,0,2-4.9Z" fill="#00538b"/><path d="M178.1,58h-9.3V38.2a10,10,0,0,0-1.2-5.5,4.2,4.2,0,0,0-3.9-1.9,5.6,5.6,0,0,0-5.1,2.6c-1.1,1.8-1.6,4.7-1.6,8.6V58h-9.3V24h7.1l1.2,4.4h.5a9.6,9.6,0,0,1,4-3.7,12.5,12.5,0,0,1,5.9-1.3c5.1,0,8.5,1.7,10.3,5h.8a9.6,9.6,0,0,1,4-3.7,13.2,13.2,0,0,1,6-1.3c3.9,0,6.8,1,8.8,3s2.9,5.1,2.9,9.5V58h-9.3V38.2a10,10,0,0,0-1.2-5.5,4.2,4.2,0,0,0-3.9-1.9,5.5,5.5,0,0,0-5,2.5c-1.2,1.6-1.7,4.2-1.7,7.7Z" fill="#00538b"/><path d="M218.8,58.6c-4.7,0-8.4-1.4-11.1-4.4s-4-7.2-4-12.5,1.4-9.7,4.2-12.8,6.6-4.5,11.4-4.5a23.2,23.2,0,0,1,8.2,1.4l-.9,2.7a25,25,0,0,0-7.4-1.4c-4,0-7.1,1.2-9.2,3.7s-3.1,6.2-3.1,10.9,1,7.9,3.1,10.4,5,3.8,8.8,3.8a21.2,21.2,0,0,0,8.3-1.6v2.8A19.6,19.6,0,0,1,218.8,58.6Z" fill="#76777a"/><path d="M244.8,58.6c-4.8,0-8.6-1.4-11.3-4.4s-4-7.1-4-12.4,1.3-9.5,3.9-12.7a12.7,12.7,0,0,1,10.5-4.7,11.3,11.3,0,0,1,9.2,4q3.3,4.1,3.3,11.1v2.4H232.7c0,4.6,1.1,8,3.1,10.4s5.1,3.6,9,3.6a24.3,24.3,0,0,0,4.9-.4,24.7,24.7,0,0,0,5.4-1.7v2.8a24.6,24.6,0,0,1-5.1,1.6A28.2,28.2,0,0,1,244.8,58.6ZM243.9,27a10,10,0,0,0-7.7,3.2c-1.9,2.1-3,5.1-3.3,9.1h20.3q0-5.8-2.4-9A8.3,8.3,0,0,0,243.9,27Z" fill="#76777a"/><path d="M283.5,49.4a7.9,7.9,0,0,1-3.4,6.9c-2.2,1.6-5.4,2.3-9.5,2.3s-7.9-.6-10.5-2V53.4a23.9,23.9,0,0,0,10.5,2.5,13.7,13.7,0,0,0,7.4-1.7,4.9,4.9,0,0,0,2.5-4.3,5.3,5.3,0,0,0-2-4.2,21,21,0,0,0-6.6-3.3,46.8,46.8,0,0,1-7-3.1,10.7,10.7,0,0,1-3-3,6.9,6.9,0,0,1-1-3.9,6.7,6.7,0,0,1,3.1-5.9q3.2-2.1,8.7-2.1a25,25,0,0,1,10.1,2l-1.1,2.7a24.1,24.1,0,0,0-9-2,13,13,0,0,0-6.4,1.3,4.2,4.2,0,0,0-2.4,3.7,5.1,5.1,0,0,0,1.9,4.2,24.5,24.5,0,0,0,7.1,3.4,39.2,39.2,0,0,1,6.5,2.9,9.9,9.9,0,0,1,3.1,3A7,7,0,0,1,283.5,49.4Z" fill="#76777a"/></svg>