<svg id="Layer_1" data-name="Layer 1" xmlns="http://www.w3.org/2000/svg" width="87" height="87" viewBox="0 0 87 87"><title>network</title><path d="M43.5,87A43.5,43.5,0,1,1,87,43.5,43.5,43.5,0,0,1,43.5,87Zm0-84A40.5,40.5,0,1,0,84,43.5,40.6,40.6,0,0,0,43.5,3Z" fill="#00538b"/><path d="M43.5,5.7A37.8,37.8,0,1,0,81.3,43.5,37.8,37.8,0,0,0,43.5,5.7ZM50,57.2l-1.1-2.8a15,15,0,0,0-5.4-28.9,14.9,14.9,0,0,0-5.4,28.9l1.2-3.3a11.5,11.5,0,1,1,8.3,0l-1-2.8a8.4,8.4,0,1,0-6.2,0l1.3-3.2a4.9,4.9,0,0,1-3.2-4.6,5.1,5.1,0,0,1,5-5,5,5,0,0,1,4.9,5,4.9,4.9,0,0,1-3.1,4.6l-1.1-2.8a2,2,0,0,0,1.2-1.8,1.9,1.9,0,0,0-1.9-2,2,2,0,0,0-2,2,1.9,1.9,0,0,0,1.3,1.8h.7v20H34.9L37,57.2a17.9,17.9,0,1,1,13,0Z" fill="#00538b"/></svg>