<svg id="Layer_1" data-name="Layer 1" xmlns="http://www.w3.org/2000/svg" width="87" height="87" viewBox="0 0 87 87"><title>profile</title><path d="M68.7,66.3a3.4,3.4,0,0,1,1.4,6,43.3,43.3,0,0,1-26.6,9,43.7,43.7,0,0,1-26.6-9,3.4,3.4,0,0,1,1.4-6l6.5-1.2c3.8-.9,5.4-5.5,7.3-6.9a3.5,3.5,0,0,0,1.4-2.5,20.4,20.4,0,0,0,0-3.5,3.2,3.2,0,0,0-.8-2.1c-1.4-1.7-2.2-6.1-2.4-8.5a2.9,2.9,0,0,0-.7-1.8c-1.6-2.1-3.7-9.3-2.4-10.6a3.2,3.2,0,0,0,.9-2.5c-.6-5.7.2-13,1.3-15.3s7.9-5.7,14.1-5.7,12.9,3.1,14.1,5.7,1.8,9.6,1.3,15.3a3.2,3.2,0,0,0,.9,2.5c1.2,1.3-.8,8.5-2.5,10.6a2.7,2.7,0,0,0-.6,1.7c-.2,2.4-1,6.8-2.4,8.6a3.3,3.3,0,0,0-.9,2.1c0,1.2,0,2.5.1,3.5a3.2,3.2,0,0,0,1.4,2.4c1.9,1.5,3.5,6.1,7.3,7Z" fill="#76777a"/></svg>